<svg width="1920" height="1080" viewBox="0 0 1920 1080" fill="none" xmlns="http://www.w3.org/2000/svg">
  <g opacity="0.85">
    <circle cx="200" cy="200" r="10" fill="#059669"/>
    <circle cx="500" cy="150" r="8" fill="#10b981"/>
    <circle cx="900" cy="300" r="12" fill="#047857"/>
    <circle cx="1300" cy="200" r="9" fill="#059669"/>
    <circle cx="1700" cy="350" r="11" fill="#10b981"/>
    <circle cx="350" cy="600" r="10" fill="#047857"/>
    <circle cx="800" cy="750" r="14" fill="#059669"/>
    <circle cx="1250" cy="650" r="9" fill="#10b981"/>
    <circle cx="1600" cy="800" r="12" fill="#047857"/>
    
    <line x1="200" y1="200" x2="500" y2="150" stroke="#059669" stroke-width="3" stroke-dasharray="6 6"/>
    <line x1="500" y1="150" x2="900" y2="300" stroke="#10b981" stroke-width="3"/>
    <line x1="900" y1="300" x2="1300" y2="200" stroke="#047857" stroke-width="3"/>
    <line x1="1300" y1="200" x2="1700" y2="350" stroke="#059669" stroke-width="3" stroke-dasharray="4 4"/>
    <line x1="200" y1="200" x2="350" y2="600" stroke="#047857" stroke-width="3"/>
    <line x1="900" y1="300" x2="800" y2="750" stroke="#10b981" stroke-width="3"/>
    <line x1="1300" y1="200" x2="1250" y2="650" stroke="#059669" stroke-width="3"/>
    <line x1="1700" y1="350" x2="1600" y2="800" stroke="#047857" stroke-width="3"/>
    <line x1="800" y1="750" x2="1250" y2="650" stroke="#10b981" stroke-width="3"/>
    <line x1="1250" y1="650" x2="1600" y2="800" stroke="#059669" stroke-width="3"/>
  </g>
</svg>
